<svg xmlns="http://www.w3.org/2000/svg" xmlns:xlink="http://www.w3.org/1999/xlink" viewBox="0 0 358.802 211.02"><defs><style>.a{fill:url(#a);}.b,.c,.d,.e,.f,.g{opacity:0.54;isolation:isolate;}.b{fill:url(#b);}.c{fill:url(#c);}.d{fill:url(#d);}.e{fill:url(#e);}.f{fill:url(#f);}.g{fill:url(#g);}.h{font-size:49px;font-family:CenturyGothic-Bold, Century Gothic;font-weight:700;}.h,.i{fill:#1a1a1a;}.i{font-size:21px;font-family:CenturyGothic, Century Gothic;}</style><linearGradient id="a" x1="334.062" y1="2392.748" x2="537.126" y2="2356.482" gradientTransform="matrix(1, 0, 0, -1, -349.09, 2477.15)" gradientUnits="userSpaceOnUse"><stop offset="0" stop-color="#2a3eff"/><stop offset="0.38" stop-color="#794efc"/><stop offset="0.99" stop-color="#ff6af7"/></linearGradient><linearGradient id="b" x1="102.786" y1="2363.214" x2="105.07" y2="2453.885" gradientTransform="matrix(1, 0, 0, -1, 0, 2566.15)" gradientUnits="userSpaceOnUse"><stop offset="0" stop-color="#fff"/><stop offset="0.06" stop-color="#fff" stop-opacity="0.94"/><stop offset="0.45" stop-color="#fff" stop-opacity="0.5"/><stop offset="0.62" stop-color="#fff" stop-opacity="0.33"/></linearGradient><linearGradient id="c" x1="102.786" y1="2381.534" x2="105.07" y2="2472.205" xlink:href="#b"/><linearGradient id="d" x1="102.786" y1="2401.21" x2="105.07" y2="2491.881" xlink:href="#b"/><linearGradient id="e" x1="102.786" y1="2419.869" x2="105.07" y2="2510.54" xlink:href="#b"/><linearGradient id="f" x1="102.786" y1="2439.885" x2="105.07" y2="2530.556" xlink:href="#b"/><linearGradient id="g" x1="102.786" y1="2460.239" x2="105.07" y2="2550.911" xlink:href="#b"/></defs><title>Asset 1</title><path class="a" d="M103.159,211.02a13.517,13.517,0,0,1-6.2-1.51L7.246,163.033A13.35,13.35,0,0,1,0,151.139V59.881A13.348,13.348,0,0,1,7.246,47.987L96.964,1.51a13.465,13.465,0,0,1,12.39,0l89.718,46.477a13.353,13.353,0,0,1,7.249,11.894v91.258a13.353,13.353,0,0,1-7.249,11.894L109.354,209.51A13.517,13.517,0,0,1,103.159,211.02Z"/><polygon class="b" points="10.951 155.668 100.608 202.182 197.002 155.668 103.573 109.584 10.951 155.668"/><polygon class="c" points="10.951 137.348 100.608 183.863 197.002 137.348 103.573 91.265 10.951 137.348"/><polygon class="d" points="10.951 117.672 100.608 164.186 197.002 117.672 103.573 71.588 10.951 117.672"/><polygon class="e" points="10.951 99.013 100.608 145.528 197.002 99.013 103.573 52.93 10.951 99.013"/><polygon class="f" points="10.951 78.998 100.608 125.512 197.002 78.998 103.573 32.914 10.951 78.998"/><polygon class="g" points="10.951 58.643 100.608 105.157 197.002 58.643 103.573 12.559 10.951 58.643"/><text class="h" transform="translate(233.383 114.36)">Artex</text><text class="i" transform="translate(243.809 137.254)">3D Objects</text></svg>